<?xml version="1.0" encoding="UTF-8"?>
<svg id="Layer_1" xmlns="http://www.w3.org/2000/svg" viewBox="0 0 100 100">
  <defs>
    <style>
      .cls-1 {
        fill: #fff;
      }

      .cls-2 {
        fill: #234075;
      }
    </style>
  </defs>
  <rect class="cls-1" width="100" height="100"/>
  <path class="cls-2" d="M89.63,35.17c-.4-7.28-4.43-13.87-10.78-17.49-7.25-4.14-17.13-3.57-23.28,2.35-1.02.99-2.63,2.6-4.82,4.84,0,0-.01.01-.02.02-.12.1-.3.09-.41-.03-1.73-1.98-3.16-3.43-5-5.06-7.67-6.76-19.42-6.14-26.89.49-8.8,7.81-9.14,20.59-2.88,30.02,1.59,2.39,3.41,4.43,5.48,6.12.09.07.12.2.07.3-1.04,2.15-1.16,4.18-.36,6.1,1.12,2.67,3.96,4.19,6.84,3.89,0,0,.01,0,.02,0,.11,0,.2.09.2.2.02.81-.09,1.95.1,2.84.74,3.35,3.31,4.91,6.65,4.85.12,0,.22.09.23.21.04.38.07.75.1,1.11.31,3.84,3.63,6.7,7.5,6.09.01,0,.03,0,.05,0,.13,0,.23.12.23.25-.16,2.42.89,5.02,3.08,6.1,1.94.96,4.62,1.02,6.28-.55,2.17-2.05,4.05-3.87,5.64-5.46.46-.46.88-1.08,1.2-1.4.13-.13.3-.2.48-.2,2.34.09,4.13-.31,5.72-2.21,1.21-1.44,1.71-2.99,1.51-4.66,0-.01,0-.03,0-.04,0-.14.13-.24.27-.24,2.43.16,4.25-.79,5.47-2.86.57-.98.88-2,.93-3.08.04-.86.05-1.29.06-1.3.02-.16.17-.27.32-.25,2.89.4,5.53-.88,6.8-3.58.89-1.9.76-3.92-.41-6.08-.06-.11-.03-.25.06-.33,6.2-5.41,10.04-12.59,9.58-20.98ZM28.96,63.03c-1.76.68-3.64.51-4.8-1.07-.91-1.24-.59-3.18.42-4.28.69-.75,1.48-1.57,2.37-2.44.89-.87,1.72-1.65,2.49-2.32,1.13-.98,3.07-1.26,4.29-.33,1.56,1.2,1.69,3.08.98,4.82-.43,1.05-1.47,1.92-2.63,3.06s-2.05,2.15-3.12,2.56ZM33.8,71.2c-.77-.09-1.4-.4-1.9-.92-.5-.52-.78-1.17-.84-1.94-.19-2.42,1.46-3.49,3.4-5.36,1.94-1.86,3.08-3.46,5.49-3.18.77.09,1.4.39,1.9.92.5.52.78,1.17.84,1.94.18,2.42-1.46,3.5-3.41,5.36-1.94,1.86-3.08,3.46-5.49,3.18ZM44.36,78.08c-1.29,1.23-3.33,1.19-4.56-.1l-.17-.18c-1.23-1.29-1.19-3.33.1-4.56l4.74-4.55c1.29-1.23,3.33-1.19,4.56.1l.17.18c1.23,1.29,1.19,3.33-.1,4.56l-4.74,4.55ZM55.45,79.97c-.34.39-1.16,1.22-2.46,2.5-1.3,1.28-2.15,2.08-2.54,2.42-1.68,1.42-3.66.62-4.21-1.31-.64-2.27,1.27-3.86,2.68-5.25,1.42-1.39,3.03-3.27,5.3-2.59,1.92.58,2.69,2.58,1.24,4.23ZM75.25,62.64c-1.37.37-2.57.04-3.6-.98-2.62-2.58-6.18-6.09-10.67-10.51-.96-.94-1.89-.95-2.8-.03-.85.86-.24,1.85.52,2.62,2.53,2.54,5.05,5.04,7.57,7.51,1.17,1.15,2.05,2.06,2.63,2.75,1.37,1.6,1.57,4.85-.66,5.86-1.35.61-2.41.22-3.48-.85-4.7-4.7-7.99-8.02-9.89-9.94-.7-.71-1.47-1.32-2.42-.91-1.36.59-1.37,2.03-.38,3.02,5.59,5.6,8.86,8.87,9.81,9.81.38.38.75,1.03,1.12,1.95.82,2.07-.82,4.34-3.02,4.43-.19.01-.36-.12-.4-.3-.79-3.25-2.88-4.95-6.24-5.1-.1,0-.19-.09-.19-.19,0-.38.19-1.02.15-1.48-.31-4.06-3.12-6.1-6.96-6.27-.16,0-.29-.14-.28-.3,0,0,0-.02,0-.03.5-3.95-2.64-7.22-6.5-7.23-.41,0-.69,0-.85-.02-.16-.01-.28-.16-.27-.32,0,0,0,0,0,0,.26-2.52-.48-4.54-2.22-6.05-2.54-2.21-6.46-2.04-8.88.21-1.17,1.09-2.36,2.25-3.59,3.5-.12.12-.3.13-.43.02-4.66-3.99-7.96-9.63-8.33-15.91-.19-3.3.23-6.17,1.26-8.62,2.42-5.75,7.84-10.03,14.19-10.62,5.14-.48,9.61,1.08,13.41,4.68,1.17,1.11,2.41,2.44,3.7,3.97.14.16.12.4-.03.55-1.89,1.81-3.75,3.63-5.59,5.47-1.97,1.97-3.39,3.64-3.94,5.99-.98,4.19,1.3,8.01,5.12,9.72,3.98,1.77,8.41.72,11.55-2.48,2.22-2.26,4.03-4.07,5.42-5.44.04-.04.11-.04.16,0,6.96,6.9,12.23,12.12,15.81,15.66,1.8,1.78,2.22,5.07-.81,5.89ZM77.71,53.46c-.07.06-.17.05-.23,0l-14.62-14.62c-.12-.12-.12-.32,0-.45,0,0,0,0,0,0,.87-.86,1.98-1.77,1.37-3.05-.76-1.6-2.02-1.35-3.1-.28-2.61,2.59-5.45,5.5-8.49,8.72-2.24,2.37-5.2,3.34-8.28,2.06-2.65-1.1-4.1-4.29-2.55-6.86.51-.85,1.27-1.77,2.27-2.76,7.55-7.49,11.82-11.72,12.82-12.68,1.98-1.9,4.29-3.65,6.99-4.36,8.26-2.16,16.25,1.39,20.13,8.85,4.57,8.77.91,19.31-6.32,25.45Z"/>
</svg>