<?xml version="1.0" encoding="UTF-8"?>
<svg xmlns="http://www.w3.org/2000/svg" version="1.1" viewBox="0 0 24 24">
  <defs>
    <style>
      .cls-1 {
        fill: #fff;
      }

      .cls-2 {
        fill: #234075;
      }
    </style>
  </defs>
  <!-- Generator: Adobe Illustrator 28.7.4, SVG Export Plug-In . SVG Version: 1.2.0 Build 166)  -->
  <g>
    <g id="Layer_1">
      <g id="Layer_1-2" data-name="Layer_1">
        <circle class="cls-2" cx="12" cy="11.8" r="11.4"/>
        <path class="cls-1" d="M7.9,16.1c-.5-.5-.9-1.1-1.2-1.8-.3-.7-.4-1.3-.4-2s.1-1.5.4-2.2c.3-.7.7-1.3,1.3-1.9.4-.4.9-.7,1.5-1,.6-.3,1.3-.5,2.1-.6.8-.2,1.7-.3,2.7-.3,1,0,2.1,0,3.4,0,0,1.2.1,2.3,0,3.3,0,1-.1,1.9-.3,2.7-.2.8-.4,1.5-.6,2.1-.3.6-.6,1.1-1,1.5-.6.6-1.2,1-1.9,1.3s-1.4.4-2.1.4-1.5-.1-2.1-.4c-.7-.3-1.3-.7-1.8-1.2ZM9.7,16c.3.2.6.3,1,.4.4,0,.7.1,1.1.1.6,0,1.1-.1,1.7-.4s1-.6,1.5-1.1c.3-.3.5-.6.7-1.1.2-.4.4-1,.5-1.6.1-.6.2-1.4.3-2.2,0-.8,0-1.8,0-2.9-.9,0-1.7,0-2.5,0-.8,0-1.5.1-2.2.2-.7.1-1.2.3-1.8.5s-.9.5-1.3.8c-.5.5-.8,1-1.1,1.5-.2.5-.3,1.1-.3,1.6s.1,1.2.4,1.7c.2.6.5,1,.8,1.3.6-1,1.2-2,2-2.8.8-.9,1.7-1.5,2.7-2.1-.9.8-1.7,1.7-2.3,2.6-.6,1-1,2-1.3,3.2Z"/>
      </g>
    </g>
  </g>
</svg>