<?xml version="1.0" encoding="UTF-8"?>
<svg id="Layer_1" xmlns="http://www.w3.org/2000/svg" viewBox="0 0 22.88 22.88">
  <defs>
    <style>
      .cls-1 {
        fill: #fff;
      }

      .cls-2 {
        fill: #234075;
      }
    </style>
  </defs>
  <circle class="cls-2" cx="11.44" cy="11.44" r="11.44"/>
  <g id="Layer_1-2" data-name="Layer_1">
    <path class="cls-1" d="M11.26,11.13c.47,0,.78-.16,1.09-.47s.47-.7.47-1.09-.16-.78-.47-1.09-.7-.47-1.09-.47-.78.16-1.09.47-.47.7-.47,1.09.16.78.47,1.09.7.47,1.09.47ZM7.37,18.91v-1.56h3.11v-2.41c-.62-.16-1.17-.39-1.71-.78s-.86-.86-1.09-1.48c-1.01-.16-1.79-.54-2.41-1.24-.62-.7-1.01-1.56-1.01-2.57v-.78c0-.47.16-.78.47-1.09s.7-.47,1.09-.47h1.56v-1.56h7.78v1.56h1.56c.47,0,.78.16,1.09.47s.47.7.47,1.09v.78c0,1.01-.31,1.87-1.01,2.57-.62.7-1.48,1.17-2.41,1.24-.23.62-.62,1.09-1.09,1.48s-1.09.7-1.71.78v2.41h3.11v1.56h-7.78ZM7.37,10.98v-2.96h-1.56v.78c0,.47.16.93.47,1.32s.7.7,1.17.86h-.08ZM11.26,13.47c.62,0,1.17-.23,1.63-.7s.7-1.01.7-1.63v-4.67h-4.67v4.67c0,.62.23,1.17.7,1.63s1.01.7,1.63.7ZM15.15,10.98c.47-.16.86-.47,1.17-.86s.47-.86.47-1.32v-.78h-1.56v2.96h-.08Z"/>
  </g>
</svg>