<?xml version="1.0" encoding="UTF-8"?>
<svg xmlns="http://www.w3.org/2000/svg" version="1.1" viewBox="0 0 22.9 22.9">
  <defs>
    <style>
      .cls-1 {
        fill: #fff;
      }

      .cls-2 {
        fill: #234075;
      }
    </style>
  </defs>
  <!-- Generator: Adobe Illustrator 28.7.4, SVG Export Plug-In . SVG Version: 1.2.0 Build 166)  -->
  <g>
    <g id="Layer_1">
      <circle class="cls-2" cx="11.4" cy="11.4" r="11.4"/>
      <path class="cls-1" d="M7.1,10.1l1.2.5c.1-.3.3-.6.5-.9s.3-.5.5-.8l-.9-.2-1.3,1.3ZM9.3,11.4l1.8,1.8c.4-.2.9-.4,1.4-.8s1-.7,1.4-1.2c.7-.7,1.3-1.6,1.7-2.4s.6-1.7.5-2.5c-.8,0-1.6.1-2.5.5s-1.7,1-2.5,1.7-.8.9-1.2,1.4-.6,1-.8,1.4ZM12.1,10.3c-.2-.2-.4-.5-.4-.9s.1-.6.4-.9.5-.4.9-.4.7.1.9.4.4.5.4.9-.1.6-.4.9-.5.4-.9.4-.7-.1-.9-.4ZM12.4,15.4l1.3-1.3-.2-.9c-.3.2-.5.4-.8.5s-.6.3-.9.4l.5,1.2ZM17.4,5.1c.2,1.3,0,2.5-.4,3.7s-1.2,2.3-2.3,3.4l.3,1.6c0,.2,0,.4,0,.6s-.2.4-.3.5l-2.6,2.6-1.3-3.1-2.7-2.7-3.1-1.3,2.6-2.6c.1-.1.3-.3.5-.3s.4,0,.6,0l1.6.3c1.1-1.1,2.2-1.9,3.4-2.3s2.4-.6,3.7-.4ZM6,13.8c.4-.4.8-.6,1.3-.6.5,0,1,.2,1.3.5s.5.8.5,1.3c0,.5-.2,1-.6,1.3-.3.3-.7.5-1.3.7s-1.5.4-2.5.5c.1-1.1.3-1.9.5-2.5s.4-1.1.7-1.3ZM6.9,14.7c-.1.1-.2.3-.3.6s-.2.6-.2.8c.3,0,.6-.1.8-.2s.5-.2.6-.3c.1-.1.2-.3.2-.5s0-.3-.2-.5-.3-.2-.5-.2-.3,0-.5.2Z"/>
    </g>
  </g>
</svg>