<?xml version="1.0" encoding="UTF-8"?>
<svg id="Layer_1" xmlns="http://www.w3.org/2000/svg" viewBox="0 0 100 100">
  <defs>
    <style>
      .cls-1 {
        fill: #fff;
      }

      .cls-2 {
        fill: #234075;
      }
    </style>
  </defs>
  <rect class="cls-1" width="100" height="100"/>
  <path class="cls-2" d="M1.8,30.1c.11-4.84,1.41-9.35,3.93-13.49.5-.82.87-1.68,1.2-2.59.74-2.02,2.11-3.65,3.67-5.08,2.21-2.02,4.74-3.58,7.64-4.45,1.73-.52,3.49-.56,5.27-.43.54.04,1.05.19,1.41.62.48.58,1.12.61,1.81.65,5.44.34,10.47,1.84,14.78,5.31,3.44,2.78,5.36,6.45,6.04,10.78.84,5.31,0,10.41-2.25,15.27-.57,1.22-1.23,2.39-2.16,3.38-.52.55-.64,1-.31,1.76,1.71,3.87,2.85,7.93,3.84,12.03.21.88.47,1.79-.43,2.51-.67.53-1.11.6-1.83.15-.32-.2-.61-.46-.87-.74-2.91-3.05-6.35-5.39-9.98-7.47-.6-.34-1.08-.42-1.73-.13-3.67,1.6-7.5,1.81-11.42,1.24-2.91-.42-5.74-1.08-8.37-2.45-4.39-2.29-7.58-5.65-9.21-10.38-.72-2.1-1.15-4.25-1.03-6.5Z"/>
  <path class="cls-1" d="M42.61,50.79c-.98-.73-1.91-1.45-2.87-2.14-1.87-1.35-3.8-2.59-5.87-3.61-.57-.28-1.14-.51-1.78-.19-5.88,2.91-11.75,2.14-17.53-.22-4.34-1.77-7.33-4.9-8.83-9.44-1.09-3.31-.97-6.6-.19-9.91.77-3.26,2.16-6.23,4.06-8.97.43-.62.96-1.2.85-2.07-.05-.41.3-.69.55-.97,2.54-2.86,5.55-4.82,9.49-5.08,4.49-.29,8.91-.06,13.17,1.56,3.47,1.32,6.54,3.19,8.62,6.39,1.27,1.97,2.03,4.13,2.28,6.44.66,6.06-.71,11.62-4.35,16.53-.75,1.01-.91,1.87-.46,3.02,1.03,2.63,1.96,5.29,2.93,7.94.07.18.17.35-.06.73Z"/>
  <path class="cls-2" d="M41.33,24.64c0,2.42-2.06,4.53-4.45,4.54-2.24.01-4.16-1.94-4.19-4.25-.02-2.26,2.2-4.3,4.7-4.32,2.3-.02,3.93,1.66,3.94,4.02Z"/>
  <path class="cls-2" d="M24.85,30.59c-2.25-.04-3.78-1.48-3.85-3.61-.04-1.32.49-2.32,1.63-2.98,1.05-.61,2.17-1.03,3.4-.98,2.43.09,3.88,2.25,3.06,4.53-.69,1.92-2.3,3.07-4.25,3.04Z"/>
  <path class="cls-2" d="M9.82,29.04c.02-2.23,1.57-3.72,3.84-3.7,2.22.02,3.71,1.26,3.73,3.1.02,2.11-2.13,4.2-4.28,4.17-1.94-.03-3.3-1.51-3.28-3.57Z"/>
  <path class="cls-2" d="M36.72,23.36c.91.01,1.76.74,1.78,1.53.02.88-.84,1.72-1.76,1.72-.82,0-1.52-.75-1.47-1.59.05-.92.7-1.67,1.45-1.66Z"/>
  <path class="cls-2" d="M24.87,28.01c-.51,0-.94-.17-1.24-.58-.1-.14-.19-.35-.17-.51.06-.71,1.93-1.73,2.52-1.39.44.25.6.95.34,1.52-.28.62-.76.95-1.45.96Z"/>
  <path class="cls-2" d="M13.46,27.36c.66.04,1.24.71,1.17,1.36-.07.72-.85,1.51-1.49,1.52-.62.01-1.18-.67-1.14-1.39.04-.75.81-1.53,1.46-1.5Z"/>
  <path class="cls-2" d="M59.89,48.45c.03-1.43.42-1.99,1.89-2.45,2.21-.68,4.49-1.04,6.75-1.46,4.32-.81,8.66-.91,12.99-.09,4.55.86,8.61,2.67,11.86,6.1,4.78,5.04,5.38,13.39-.81,18.83-2.3,2.02-4.96,3.31-7.85,4.17-4.95,1.47-10.04,1.98-15.17,2.17-.93.03-1.49.36-1.97,1.11-1.93,3.02-3.91,6.01-5.88,9.01-.33.5-.67.99-1.02,1.48-.3.43-.64.86-1.25.68-.6-.18-1.05-.59-1.17-1.24-.06-.38-.06-.77-.06-1.15.01-3.12.26-6.23.72-9.32.33-2.25.31-2.26-1.95-2.7-1.88-.37-3.58-1.14-5.1-2.28-3.32-2.51-4.39-5.98-3.67-9.89.9-4.89,3.46-8.86,7.55-11.78.28-.2.57-.38.87-.54,1.37-.75,1.84-.84,3.26-.65Z"/>
  <path class="cls-1" d="M60.9,81.88c.14-1.64.26-3.16.42-4.67.1-.93.29-1.86.41-2.79.22-1.69-.21-2.37-1.9-2.74-1.34-.29-2.67-.58-3.94-1.08-3.95-1.54-5.89-5.09-5.03-9.23,1.04-5.04,3.98-8.67,8.33-11.29,2.45-1.48,5.21-2,7.93-2.64,2.04-.48,4.12-.76,6.21-.86,5.04-.25,9.89.51,14.35,2.97,2.67,1.47,4.86,3.47,6.04,6.39,1.71,4.23.37,8.67-2.83,11.38-2.53,2.14-5.52,3.39-8.7,4.17-4.57,1.13-9.22,1.78-13.93,1.94-1.04.04-1.77.42-2.32,1.3-1.3,2.05-2.65,4.08-3.98,6.12-.23.34-.32.8-1.04,1.03Z"/>
  <path class="cls-2" d="M84.08,56.49c2.26-.14,3.82,2.28,2.59,4.51-.88,1.59-2.79,2.46-4.56,2.16-1.26-.22-2.1-.93-2.44-2.14-.34-1.24-.09-2.38.89-3.27.99-.89,2.17-1.31,3.52-1.25Z"/>
  <path class="cls-2" d="M72.18,57.22c2.56.02,3.89,1.91,2.93,4.11-.54,1.24-1.51,2.02-2.83,2.39-1.56.43-3.15-.24-3.89-1.67-.87-1.67.15-4.06,1.97-4.56.61-.17,1.24-.33,1.81-.27Z"/>
  <path class="cls-2" d="M61.01,57.98c1.4-.04,2.51.47,3.32,1.6.52.73.53,1.52.19,2.31-.84,1.94-3.22,2.89-5.17,2.09-1.49-.61-2.18-2.18-1.58-3.7.67-1.73,1.68-2.45,3.24-2.31Z"/>
  <path class="cls-2" d="M82.96,60.97c-.53-.01-.93-.37-.94-.84-.01-.63.95-1.63,1.57-1.63.43,0,.86.58.83,1.11-.04.68-.78,1.37-1.45,1.35Z"/>
  <path class="cls-2" d="M71.93,59.69c.34.11.87.09.85.69-.01.46-.95,1.2-1.39,1.15-.41-.04-.81-.58-.77-1.04.04-.5.62-.87,1.3-.8Z"/>
  <path class="cls-2" d="M62.1,60.87c0,.46-.83,1.18-1.35,1.16-.6-.02-1.25-.66-1.26-1.23,0-.58.46-1.04,1.06-1.04.67,0,1.54.62,1.55,1.11Z"/>
</svg>