<?xml version="1.0" encoding="UTF-8"?>
<svg xmlns="http://www.w3.org/2000/svg" version="1.1" viewBox="0 0 24 24">
  <defs>
    <style>
      .cls-1 {
        fill: #fff;
      }

      .cls-2 {
        fill: #234075;
      }
    </style>
  </defs>
  <!-- Generator: Adobe Illustrator 28.7.4, SVG Export Plug-In . SVG Version: 1.2.0 Build 166)  -->
  <g>
    <g id="Layer_1">
      <g id="Layer_1-2" data-name="Layer_1">
        <circle class="cls-2" cx="12" cy="11.8" r="11.4"/>
        <path class="cls-1" d="M12,19.2c-1.3,0-2.4-.3-3.6-1-1.1-.7-2-1.5-2.7-2.5v2.1h-1.1v-4h4v1.1h-2.1c.6.8,1.3,1.6,2.3,2.2,1,.6,2,.9,3.1.9.9,0,1.7-.2,2.4-.5.8-.3,1.4-.8,2-1.3.6-.6,1-1.2,1.3-2,.3-.8.5-1.6.5-2.4h1.1c0,1-.2,2-.6,2.9-.4.9-.9,1.7-1.6,2.4s-1.5,1.2-2.4,1.6-1.9.6-2.9.6ZM4.6,11.8c0-1,.2-2,.6-2.9s.9-1.7,1.6-2.4,1.5-1.2,2.4-1.6c.9-.4,1.9-.6,2.9-.6s2.4.3,3.6,1c1.1.7,2,1.5,2.7,2.5v-2.1h1.1v4h-4v-1.1h2.1c-.6-.8-1.3-1.6-2.3-2.2-1-.6-2-.9-3.1-.9-.9,0-1.7.2-2.4.5-.8.3-1.4.8-2,1.3-.6.6-1,1.2-1.3,2-.3.8-.5,1.6-.5,2.4h-1.1ZM12,15.8c.2,0,.4,0,.5-.2.1-.1.2-.3.2-.5s0-.4-.2-.5c-.1-.1-.3-.2-.5-.2s-.4,0-.5.2c-.1.1-.2.3-.2.5s0,.4.2.5c.1.1.3.2.5.2ZM11.4,13.3h1c0-.4,0-.7.2-.9.1-.2.3-.5.6-.7.4-.4.6-.7.8-1,.1-.3.2-.6.2-.9,0-.6-.2-1.1-.6-1.4s-.9-.5-1.6-.5-1,.1-1.4.4c-.4.3-.7.7-.9,1.2l1,.4c.1-.3.3-.5.6-.7s.5-.3.8-.3.6,0,.8.3c.2.2.3.4.3.7s0,.4-.2.6-.3.4-.6.7c-.4.4-.7.7-.8,1-.1.3-.2.7-.2,1.1Z"/>
      </g>
    </g>
  </g>
</svg>