<?xml version="1.0" encoding="UTF-8"?>
<svg xmlns="http://www.w3.org/2000/svg" version="1.1" viewBox="0 0 24 24">
  <defs>
    <style>
      .cls-1 {
        fill: #fff;
      }
    </style>
  </defs>
  <!-- Generator: Adobe Illustrator 28.7.4, SVG Export Plug-In . SVG Version: 1.2.0 Build 166)  -->
  <g>
    <g id="Layer_1">
      <path class="cls-1" d="M11.9,21.7c-1.7,0-3.1-.4-4.7-1.3-1.4-.9-2.6-2-3.5-3.3v2.7h-1.4v-5.2h5.2v1.4h-2.7c.8,1,1.7,2.1,3,2.9s2.6,1.2,4,1.2,2.2-.3,3.1-.7c1-.4,1.8-1,2.6-1.7.8-.8,1.3-1.6,1.7-2.6s.7-2.1.7-3.1h1.4c0,1.3-.3,2.6-.8,3.8s-1.2,2.2-2.1,3.1-2,1.6-3.1,2.1-2.5.8-3.8.8h.4ZM2.3,12c0-1.3.3-2.6.8-3.8s1.2-2.2,2.1-3.1,2-1.6,3.1-2.1c1.2-.5,2.5-.8,3.8-.8s3.1.4,4.7,1.3c1.4.9,2.6,2,3.5,3.3v-2.7h1.4v5.2h-5.2v-1.4h2.7c-.8-1-1.7-2.1-3-2.9-1.3-.8-2.6-1.2-4-1.2s-2.2.3-3.1.7c-1,.4-1.8,1-2.6,1.7-.8.8-1.3,1.6-1.7,2.6s-.7,2.1-.7,3.1h-1.8ZM11.9,17.2c.3,0,.5,0,.7-.3.1-.1.3-.4.3-.7s0-.5-.3-.7c-.1-.1-.4-.3-.7-.3s-.5,0-.7.3c-.1.1-.3.4-.3.7s0,.5.3.7c.1.1.4.3.7.3ZM11.2,14h1.3c0-.5,0-.9.3-1.2.1-.3.4-.7.8-.9.5-.5.8-.9,1-1.3.1-.4.3-.8.3-1.2,0-.8-.3-1.4-.8-1.8s-1.2-.7-2.1-.7-1.3.1-1.8.5c-.5.4-.9.9-1.2,1.6l1.3.5c.1-.4.4-.7.8-.9s.7-.4,1-.4.8,0,1,.4c.3.3.4.5.4.9s0,.5-.3.8-.4.5-.8.9-.9.9-1,1.3-.3.9-.3,1.4Z"/>
    </g>
  </g>
</svg>