<?xml version="1.0" encoding="UTF-8"?>
<svg id="Layer_1" xmlns="http://www.w3.org/2000/svg" viewBox="0 0 100 100">
  <defs>
    <style>
      .cls-1 {
        fill: #fff;
      }

      .cls-2 {
        fill: #234075;
      }

      .cls-3 {
        fill: #fdfdfd;
      }

      .cls-4 {
        fill: #234075;
      }
    </style>
  </defs>
  <rect class="cls-1" width="100" height="100"/>
  <path class="cls-2" d="M38.47,20.16c0-.93.05-1.7-.01-2.47-.19-2.21.92-3.52,2.84-4.4,2.98-1.38,6.16-1.87,9.38-2.06,3.58-.21,7.13.24,10.64.94.9.18,1.79.35,2.7.34.74-.01,1.46.18,1.84.82.8,1.38,1.52,2.84,1.54,4.47.1,5.99-1.61,11.63-3.64,17.15-3.29,8.93-6.81,17.77-9.5,26.91-.24.82-.63,1.57-1.16,2.22-.84,1.04-1.83,1.37-2.96.78-1.14-.59-2.25-.66-3.45-.43-.34.07-.7.06-1.05.06-2.14.01-2.55-.42-2.77-2.5-.68-6.48-1.43-12.95-2.1-19.42-.78-7.52-1.87-15.01-2.3-22.41Z"/>
  <path class="cls-4" d="M45.66,88.56c-2.33-.17-5.1-.89-6.99-3.35-2.62-3.41-2.11-8.38,1.21-11.45,2.69-2.49,5.78-3.82,9.6-2.95,3.47.79,6.69,3.98,7.06,7.49.3,2.87-1.07,5.15-2.92,7.16-1.87,2.03-4.56,3.11-7.95,3.1Z"/>
  <path class="cls-1" d="M46.85,57.89c.06-2.43-.59-4.79-.85-7.2-1.16-10.71-2.42-21.42-3.88-32.09-.24-1.74-.23-1.74,1.55-2.31,3.94-1.25,7.97-1.4,12.05-.91,1.25.15,2.49.39,3.74.5.86.08,1.07.38.78,1.21-1.03,2.97-2.09,5.94-2.97,8.96-2.45,8.39-4.84,16.8-7.22,25.21-.59,2.09-1.45,4.09-2.19,6.12-.1.26-.23.52-1.01.5Z"/>
  <path class="cls-3" d="M46.23,84.26c-.99.01-1.93-.13-2.79-.72-1.96-1.35-2.36-3.05-1.04-5.02.93-1.4,2.01-2.67,3.47-3.59.9-.57,1.75-.66,2.76-.22,2.36,1.04,3.59,3.19,3.07,5.54-.51,2.33-2.82,4.02-5.46,4Z"/>
  <path class="cls-4" d="M46.28,21.86c1.98-1.01,3-.5,2.97,1.38-.02,1.19-.11,2.37-.26,3.55-.07.54-.32,1.07-.54,1.58-.22.53-.55,1.06-1.22.94-.8-.14-.88-.87-.83-1.48.09-1.04.1-2.17.54-3.08.6-1.24.67-2.15-.67-2.9Z"/>
</svg>