<?xml version="1.0" encoding="UTF-8"?>
<svg id="Layer_1" xmlns="http://www.w3.org/2000/svg" viewBox="0 0 100 100">
  <defs>
    <style>
      .cls-1 {
        fill: #fff;
      }

      .cls-2 {
        fill: #234075;
      }
    </style>
  </defs>
  <rect class="cls-1" width="100" height="100"/>
  <path class="cls-2" d="M38.39,87.69l-6.76-11.5-13.22-2.79,1.42-13.1-8.6-9.96,8.6-9.9-1.42-13.1,13.22-2.79,6.76-11.56,11.97,5.39,11.97-5.39,6.82,11.56,13.16,2.79-1.42,13.1,8.6,9.9-8.6,9.96,1.42,13.1-13.16,2.79-6.82,11.5-11.97-5.39-11.97,5.39ZM41,79.99l9.37-3.97,9.6,3.97,5.63-8.77,10.2-2.55-1.01-10.37,6.99-7.94-6.99-8.12,1.01-10.37-10.2-2.37-5.81-8.77-9.43,3.97-9.6-3.97-5.63,8.77-10.2,2.37,1.01,10.37-6.99,8.12,6.99,7.94-1.01,10.55,10.2,2.37,5.87,8.77ZM46.58,62.44l20.16-20.04-4.33-4.15-15.83,15.71-8.18-8.36-4.39,4.33,12.57,12.51Z"/>
</svg>