<?xml version="1.0" encoding="UTF-8"?>
<svg id="Layer_1" xmlns="http://www.w3.org/2000/svg" viewBox="0 0 100 100">
  <defs>
    <style>
      .cls-1 {
        fill: #fff;
      }

      .cls-2 {
        fill: #234075;
      }
    </style>
  </defs>
  <rect class="cls-1" width="100" height="100"/>
  <path class="cls-2" d="M47.51,24.73c6.92.09,12.6,2.31,17.25,7.01,3.06,3.1,4.86,6.88,5.75,11.06,1.34,6.31.39,12.24-3.38,17.6-1.19,1.69-2.63,3.17-4.18,4.5-2.44,2.08-3.33,4.75-3.46,7.8-.02.56,0,1.12.21,1.64.29.75.49,1.47.01,2.22-.26.42-.16.85.11,1.25.55.81.57,1.62.07,2.49-.28.49-.19,1.08-.22,1.63-.05,1.21.13,2.44-.52,3.58-.12.21-.09.55-.05.81.32,1.85-.6,3.22-1.77,4.44-.66.69-1.23,1.39-1.69,2.23-.69,1.27-1.62,2.37-2.74,3.32-2.74,2.31-7.36,2.3-9.96-.58-1.3-1.44-2.64-2.83-4.3-3.89-1.01-.64-1.58-1.69-1.97-2.81-.1-.31-.28-.72-.16-.96.6-1.2.19-2.23-.36-3.28-.2-.39-.4-.87-.21-1.28.53-1.15.3-2.26.05-3.41-.19-.88-.03-1.77.28-2.62.25-.67.3-1.32-.14-1.9-.52-.67-.53-1.42-.52-2.21.04-2-.03-3.98-.51-5.95-.45-1.83-1.24-3.42-2.57-4.75-1.38-1.37-2.71-2.76-3.79-4.4-5.6-8.46-4.46-21.98,4.83-28.85,4.21-3.12,9.02-4.68,13.94-4.7Z"/>
  <path class="cls-2" d="M12.82,63.94c-.62-.01-1.06-.07-1.24-.58-.15-.43.06-.76.38-1,2.89-2.15,6.02-3.68,9.7-3.76.22,0,.44.01.66.06.33.08.65.21.73.58.09.37-.15.62-.42.83-.57.46-1.22.77-1.89,1.02-2.26.87-4.54,1.71-6.81,2.54-.41.15-.85.23-1.12.31Z"/>
  <path class="cls-2" d="M82.91,41.27c1,0,1.99-.03,2.99.01.52.02,1.02.26,1.07.85.05.62-.44.82-.94.97-2.89.86-5.82,1.41-8.84,1.32-.17,0-.33-.01-.5-.04-.62-.13-1.23-.37-1.34-1.06-.1-.68.53-.96,1.01-1.17.6-.25,1.28-.36,1.93-.48,1.53-.3,3.08-.36,4.63-.4Z"/>
  <path class="cls-2" d="M66.94,26.08c-.48-.01-.7-.28-.72-.73-.02-.35.14-.64.3-.93,1.39-2.66,3.32-4.83,5.89-6.4.19-.12.38-.23.59-.31.32-.14.64-.19.92.09.28.28.23.61.07.92-.13.24-.3.47-.45.69-1.48,2.16-3.29,4.04-5.21,5.81-.4.37-.81.77-1.38.87Z"/>
  <path class="cls-2" d="M28.17,13.3c.66.08,1.07.63,1.45,1.16.68.95,1.13,2.02,1.56,3.1.61,1.54,1.21,3.08,1.81,4.63.15.37.27.77-.18,1.01-.35.19-.65-.04-.88-.27-.32-.3-.63-.62-.89-.98-1.56-2.1-2.72-4.41-3.62-6.86-.14-.37-.2-.75-.14-1.14.07-.45.36-.66.9-.65Z"/>
  <path class="cls-2" d="M13.95,43.65c1.6,0,3.22,0,4.74.64.31.13.63.22.91.4.62.4.62,1-.08,1.2-2.94.83-5.88.95-8.78-.23-.52-.21-.82-.63-.71-1.18.11-.55.56-.82,1.11-.83.94-.02,1.88,0,2.82,0Z"/>
  <path class="cls-2" d="M23.75,32.93c-.43-.11-.87-.18-1.29-.33-1.87-.7-3.72-1.45-5.44-2.47-.48-.28-.97-.56-1.38-.93-.42-.37-1.17-.7-.74-1.45.35-.62.97-.37,1.5-.22,2.92.81,5.6,2.09,7.89,4.12.3.26.6.54.34.98-.2.33-.54.35-.88.31Z"/>
  <path class="cls-2" d="M47.98,13.03c0-.83-.01-1.66,0-2.49.01-.74.24-1.42.62-2.04.41-.67,1.02-.66,1.41,0,.23.39.3.83.34,1.27.25,2.51-.06,4.97-.54,7.42-.04.21-.13.42-.22.63-.12.25-.27.51-.59.5-.32,0-.45-.27-.55-.54-.25-.68-.47-1.36-.48-2.09-.02-.88,0-1.77,0-2.66Z"/>
  <path class="cls-2" d="M74.78,58.12c.12.04.29.07.43.14,2.33,1.27,4.59,2.64,6.58,4.42.12.11.25.22.34.36.31.48.08,1.04-.48,1.11-.21.03-.45,0-.65-.09-2.24-.94-4.51-1.84-6.4-3.42-.82-.69-.98-1.32-.64-2.01.16-.32.38-.54.81-.52Z"/>
  <path class="cls-1" d="M43.94,73.92c0,.72.03,1.44,0,2.16-.04.87-.31,1.08-1.16.83-.64-.18-1.27-.43-1.86-.73-.99-.5-1.66-1.26-1.72-2.45-.06-1.22-.24-2.43-.3-3.65-.17-3.92-1.41-7.36-4.28-10.15-1.92-1.87-3.63-3.93-4.49-6.52-2.46-7.43-1.69-14.46,4.09-19.98,4.95-4.73,11.18-6.35,18.03-4.85,4.44.97,8.13,3.2,11.01,6.7,2.61,3.18,3.94,6.89,4.26,10.98.49,6.31-1.78,11.49-6.36,15.75-.32.3-.65.6-.98.89-2.05,1.79-3.25,4.03-3.67,6.71-.15.99-.4,1.96-.5,2.95-.16,1.53-1.23,2.43-2.21,3.4-.15.15-.37.25-.61.15-.25-.11-.25-.34-.25-.56,0-7.47,1.31-14.66,4.46-21.47.35-.75.66-1.53.95-2.3.25-.66.24-1.31-.31-1.85-.58-.56-1.26-.63-2-.35-.94.36-1.76.94-2.57,1.52-.65.47-1.04.57-1.6-.2-1.18-1.62-1.53-1.64-3.42-.7-.33.16-.67.25-.91-.04-1.17-1.5-2.45-.79-3.73-.22-.2.09-.38.23-.57.35-.95.55-1.9.85-2.98.26-.43-.23-.95-.31-1.43-.41-1.71-.36-2.58.56-2.07,2.25.3,1,.77,1.95,1.22,2.9,1.22,2.61,2.61,5.13,3.73,7.8,1.59,3.79,2.22,6.71,2.23,10.82Z"/>
  <path class="cls-1" d="M54.46,53.27c-.45,1.22-.91,2.44-1.36,3.66-2.27,6.24-3.29,12.64-2.47,19.27.06.47-.02.78-.51.85-.93.13-1.92.6-2.78.19-1.05-.5-.38-1.61-.4-2.41-.07-3.9-.23-7.76-1.73-11.44-1.15-2.83-2.57-5.52-4.06-8.18-.08-.14-.2-.28-.25-.43-.19-.56-.92-1.05-.58-1.63.31-.54,1.02-.1,1.54-.09.99.01,1.85-.32,2.66-.83.63-.39,1.02-.32,1.51.32,1.1,1.46,1.45,1.46,2.91.19.51-.45.87-.81,1.43,0,1.11,1.61,1.36,1.63,3.11.71.23-.12.46-.27.69-.4.1.07.19.15.29.22Z"/>
  <path class="cls-1" d="M43.02,89.79c-.44.03-.88.06-1.33.08-.34.02-.67-.06-.95-.25-.39-.26-.64-.62-.58-1.11.07-.61.56-.58,1-.62,1.38-.12,2.76-.26,4.14-.37,3.26-.27,6.51-.65,9.7-1.39.38-.09.8-.23,1.08.13.29.37-.04.74-.17,1.08-.34.91-1.16,1.17-1.99,1.26-3.63.43-7.27.81-10.9,1.22,0-.01,0-.02,0-.03Z"/>
  <path class="cls-1" d="M41.18,85.69c-.21-.02-.56.01-.87-.08-.56-.17-1.04-.55-1.02-1.17.02-.63.61-.74,1.11-.77,1.61-.08,3.22-.1,4.82-.2,3.37-.2,6.75-.32,10.05-1.17.22-.06.45-.12.62.08.22.25.12.52,0,.76-.29.57-.85.68-1.4.78-1.15.21-2.3.39-3.45.55-3.24.44-6.48.95-9.86,1.22Z"/>
  <path class="cls-1" d="M42.87,79.99c.83-.16,1.65-.01,2.47.08,2.37.27,4.69.26,7.06-.3,1.45-.34,2.8-.88,4.3-1.55.05,1.05-.5,1.45-1.18,1.68-1.62.54-3.29.96-4.99,1.06-2.47.15-4.95.39-7.43.36-.88-.01-1.75.21-2.63.27-.74.05-1.48.03-1.54-1,1.55.28,3.11-.25,4.76.07.1.04.04-.28-.04-.07-.01.04-.06.02-.16,0-.33-.08-.63-.17-.63-.6Z"/>
  <path class="cls-2" d="M42.87,79.99c.66.46,1.53.1,2.21.54-.12.57-.6.37-.93.4-1.2.09-2.42,0-3.61.28-.69.16-1.15-.2-1.61-.61-.02-.11-.04-.22-.04-.33,0-.47-.43-1.03.09-1.38.43-.29.81.16,1.19.35.85.42,1.79.54,2.7.75Z"/>
  <path class="cls-1" d="M47.63,92.43c.22-.6.4-.75.62-.78,1.37-.19,2.74-.36,4.11-.54.29-.04.57,0,.66.33.08.32-.12.51-.38.65-.05.03-.1.05-.15.06-1.56.4-3.12.36-4.85.27Z"/>
  <path class="cls-1" d="M46.49,94.1c.39.17,1.08.07,1.15.65.07.6-.54.57-.96.56-.49-.02-.84-.25-.8-.81.03-.32.24-.46.61-.4Z"/>
  <path class="cls-2" d="M32.23,41.25c.1-.89.37-1.74.72-2.55,1.11-2.6,2.98-4.49,5.53-5.71.55-.26,1.14-.45,1.76-.37.35.04.65.2.76.55.11.37-.09.62-.4.82-.98.62-1.96,1.25-2.78,2.09-1.42,1.43-2.48,3.11-3.37,4.91-.12.25-.21.51-.33.76-.23.46-.51.93-1.11.81-.67-.14-.78-.7-.78-1.29Z"/>
  <path class="cls-2" d="M46.69,30.53c.14.02.41.05.68.11.28.07.5.24.56.54.07.36-.06.68-.4.82-.82.33-1.64.65-2.47.93-.4.13-.76,0-.99-.38-.23-.39-.11-.73.13-1.07.59-.81,1.47-.89,2.5-.94Z"/>
</svg>