<?xml version="1.0" encoding="UTF-8"?>
<svg id="Layer_1" xmlns="http://www.w3.org/2000/svg" viewBox="0 0 100 100">
  <defs>
    <style>
      .cls-1 {
        fill: #fff;
      }

      .cls-2 {
        fill: #234075;
      }
    </style>
  </defs>
  <rect class="cls-1" width="100" height="100"/>
  <path class="cls-2" d="M25.2,87.68v-16.92c-3.74-3.41-6.64-7.39-8.7-11.95s-3.1-9.36-3.1-14.41c0-9.83,3.44-18.19,10.33-25.08s15.24-10.33,25.08-10.33c8.2,0,15.46,2.41,21.78,7.23,6.33,4.82,10.44,11.1,12.34,18.83l5.11,20.16c.33,1.25.1,2.38-.69,3.39s-1.84,1.52-3.15,1.52h-7.87v11.8c0,2.16-.77,4.02-2.31,5.56s-3.39,2.31-5.56,2.31h-7.87v7.87h-7.87v-15.74h15.74v-19.67h10.62l-3.74-15.24c-1.51-5.97-4.72-10.82-9.64-14.56s-10.56-5.61-16.92-5.61c-7.61,0-14.1,2.66-19.47,7.97-5.38,5.31-8.06,11.77-8.06,19.37,0,3.93.8,7.67,2.41,11.21s3.88,6.69,6.84,9.44l2.56,2.36v20.46h-7.87ZM48.81,64.07c1.11,0,2.05-.38,2.8-1.13.75-.75,1.13-1.69,1.13-2.8s-.38-2.05-1.13-2.8c-.75-.75-1.69-1.13-2.8-1.13s-2.05.38-2.8,1.13-1.13,1.69-1.13,2.8.38,2.05,1.13,2.8,1.69,1.13,2.8,1.13ZM45.86,51.49h6c0-1.64.21-2.97.64-3.98s1.29-2.25,2.61-3.69c1.18-1.31,2.33-2.64,3.44-3.98s1.67-3.1,1.67-5.26c0-2.75-1.07-5.08-3.2-6.98s-4.77-2.85-7.92-2.85c-2.62,0-5,.75-7.13,2.26s-3.62,3.47-4.47,5.9l5.41,2.26c.46-1.44,1.26-2.61,2.41-3.49s2.41-1.33,3.79-1.33,2.64.39,3.59,1.18c.95.79,1.43,1.8,1.43,3.05,0,1.38-.41,2.61-1.23,3.69s-1.79,2.18-2.9,3.29c-1.31,1.38-2.33,2.75-3.05,4.13s-1.08,3.31-1.08,5.8Z"/>
</svg>